<svg width="575" height="542" viewBox="0 0 575 542" fill="none" xmlns="http://www.w3.org/2000/svg">
<line x1="31" y1="50.5" x2="306.944" y2="50.5" stroke="white" stroke-width="15"/>
<line x1="31" y1="215.5" x2="306.944" y2="215.5" stroke="white" stroke-width="15"/>
<line x1="1.0232" y1="530" x2="542.062" y2="534.5" stroke="white" stroke-width="15"/>
<line x1="39.5001" y1="223.034" x2="38.5001" y2="0.03362" stroke="white" stroke-width="15"/>
<line x1="62.5" y1="500.026" x2="61.5" y2="214.026" stroke="white" stroke-width="15"/>
<line x1="145.5" y1="540.01" x2="145.5" y2="439.99" stroke="white" stroke-width="15"/>
<line x1="198.5" y1="540.02" x2="198.5" y2="440" stroke="white" stroke-width="15"/>
<line x1="198.5" y1="540.02" x2="198.5" y2="440" stroke="white" stroke-width="15"/>
<line x1="299.5" y1="223" x2="299.5" y2="8.99178e-10" stroke="white" stroke-width="15"/>
<line x1="567.594" y1="84.1849" x2="559.594" y2="34.1849" stroke="white" stroke-width="15"/>
<line x1="500.5" y1="542" x2="500.5" y2="77" stroke="white" stroke-width="15"/>
<line x1="534.5" y1="538" x2="534.5" y2="92" stroke="white" stroke-width="15"/>
<line x1="86.8186" y1="48.4224" x2="41.8186" y2="5.42244" stroke="white" stroke-width="15"/>
<line x1="503.56" y1="363.044" x2="292.56" y2="208.044" stroke="white" stroke-width="15"/>
<line x1="301.369" y1="6.09613" x2="241.369" y2="49.0961" stroke="white" stroke-width="15"/>
<line x1="561.801" y1="73.7617" x2="531.801" y2="98.7617" stroke="white" stroke-width="15"/>
<line x1="561.369" y1="40.0961" x2="501.369" y2="83.0961" stroke="white" stroke-width="15"/>
<line x1="65.3689" y1="484.096" x2="5.36889" y2="527.096" stroke="white" stroke-width="15"/>
<path d="M123 117.5C123 134.641 111.476 147 99 147C86.5236 147 75 134.641 75 117.5C75 100.359 86.5236 88 99 88C111.476 88 123 100.359 123 117.5Z" stroke="white" stroke-width="10"/>
</svg>
